<svg width="24" height="24" viewBox="0 0 24 24" fill="none" xmlns="http://www.w3.org/2000/svg">
<path fill-rule="evenodd" clip-rule="evenodd" d="M20.25 12C20.25 16.5563 16.5563 20.25 12 20.25C7.44365 20.25 3.75 16.5563 3.75 12C3.75 7.44365 7.44365 3.75 12 3.75C16.5563 3.75 20.25 7.44365 20.25 12ZM22.5 12C22.5 17.799 17.799 22.5 12 22.5C6.20101 22.5 1.5 17.799 1.5 12C1.5 6.20101 6.20101 1.5 12 1.5C17.799 1.5 22.5 6.20101 22.5 12ZM13.125 6.75C13.125 6.12868 12.6213 5.625 12 5.625C11.3787 5.625 10.875 6.12868 10.875 6.75V12C10.875 12.3541 11.0417 12.6875 11.325 12.9L14.325 15.15C14.8221 15.5228 15.5272 15.4221 15.9 14.925C16.2728 14.4279 16.1721 13.7228 15.675 13.35L13.125 11.4375V6.75Z" fill="#856FFF"/>
</svg>
