<svg width="16" height="17" viewBox="0 0 16 17" fill="none" xmlns="http://www.w3.org/2000/svg">
<path fill-rule="evenodd" clip-rule="evenodd" d="M3.23676 3.73676C3.55244 3.42108 4.06426 3.42108 4.37994 3.73676L8 7.35682L11.6201 3.73676C11.9357 3.42108 12.4476 3.42108 12.7632 3.73676C13.0789 4.05244 13.0789 4.56426 12.7632 4.87994L9.14318 8.5L12.7632 12.1201C13.0789 12.4357 13.0789 12.9476 12.7632 13.2632C12.4476 13.5789 11.9357 13.5789 11.6201 13.2632L8 9.64318L4.37994 13.2632C4.06426 13.5789 3.55244 13.5789 3.23676 13.2632C2.92108 12.9476 2.92108 12.4357 3.23676 12.1201L6.85682 8.5L3.23676 4.87994C2.92108 4.56426 2.92108 4.05244 3.23676 3.73676Z" fill="#A2A2A2"/>
</svg>
