<svg width="16" height="16" viewBox="0 0 16 16" fill="none" xmlns="http://www.w3.org/2000/svg">
<path fill-rule="evenodd" clip-rule="evenodd" d="M3.23676 3.23676C3.55244 2.92108 4.06426 2.92108 4.37994 3.23676L8 6.85682L11.6201 3.23676C11.9357 2.92108 12.4476 2.92108 12.7632 3.23676C13.0789 3.55244 13.0789 4.06426 12.7632 4.37994L9.14318 8L12.7632 11.6201C13.0789 11.9357 13.0789 12.4476 12.7632 12.7632C12.4476 13.0789 11.9357 13.0789 11.6201 12.7632L8 9.14318L4.37994 12.7632C4.06426 13.0789 3.55244 13.0789 3.23676 12.7632C2.92108 12.4476 2.92108 11.9357 3.23676 11.6201L6.85682 8L3.23676 4.37994C2.92108 4.06426 2.92108 3.55244 3.23676 3.23676Z" fill="#A2A2A2"/>
</svg>
