<svg width="48" height="49" viewBox="0 0 48 49" fill="none" xmlns="http://www.w3.org/2000/svg">
<rect x="0.5" y="0.90625" width="47" height="47" rx="7.5" stroke="#EAEBEF"/>
<path fill-rule="evenodd" clip-rule="evenodd" d="M29.1348 13.9062C32.0978 13.9062 34.4998 16.3083 34.4998 19.2713C34.4998 19.6779 34.3383 20.0677 34.0509 20.3552L33.2581 21.148L30.3013 24.1048C30.3012 24.1049 30.301 24.1051 30.3009 24.1052L22.7133 31.6928C22.0851 32.321 21.285 32.7492 20.4138 32.9235L16.4561 33.715C15.4066 33.9249 14.4812 32.9995 14.6911 31.9499L15.4826 27.9923C15.6569 27.1211 16.0851 26.321 16.7133 25.6928L24.3009 18.1052C24.3012 18.1049 24.3015 18.1046 24.3018 18.1043L28.0509 14.3552C28.3383 14.0677 28.7282 13.9062 29.1348 13.9062ZM25.669 19.919L18.3043 27.2838C17.9902 27.5979 17.7761 27.998 17.6889 28.4335L17.118 31.2881L19.9725 30.7172C20.3537 30.6409 20.7076 30.4675 21.0006 30.2149C21.0424 30.1788 21.083 30.1411 21.1223 30.1018L28.487 22.7371C28.3519 21.2435 27.1626 20.0542 25.669 19.919ZM30.3171 20.907C29.775 19.644 28.7621 18.631 27.4991 18.089L29.419 16.169C30.9126 16.3041 32.1019 17.4935 32.237 18.9871L30.3171 20.907Z" fill="black" fill-opacity="0.85"/>
</svg>
