<svg width="32" height="32" viewBox="0 0 32 32" fill="none" xmlns="http://www.w3.org/2000/svg">
<rect width="32" height="32" rx="16" fill="#856FFF" fill-opacity="0.1"/>
<path d="M10.3432 20.2426C9.95266 20.6331 9.95266 21.2663 10.3432 21.6568C10.7337 22.0473 11.3669 22.0473 11.7574 21.6568L10.3432 20.2426ZM21.9498 11.0502C21.9498 10.4979 21.5021 10.0502 20.9498 10.0502L11.9498 10.0502C11.3975 10.0502 10.9498 10.4979 10.9498 11.0502C10.9498 11.6025 11.3975 12.0502 11.9498 12.0502L19.9498 12.0502L19.9498 20.0502C19.9498 20.6025 20.3975 21.0502 20.9498 21.0502C21.5021 21.0502 21.9498 20.6025 21.9498 20.0502L21.9498 11.0502ZM11.7574 21.6568L21.6569 11.7573L20.2427 10.3431L10.3432 20.2426L11.7574 21.6568Z" fill="#856FFF"/>
</svg>
