<svg width="24" height="25" viewBox="0 0 24 25" fill="none" xmlns="http://www.w3.org/2000/svg">
<path d="M6.34319 16.6484C5.95266 17.0389 5.95266 17.6721 6.34319 18.0626C6.73371 18.4531 7.36688 18.4531 7.7574 18.0626L6.34319 16.6484ZM17.9498 7.45597C17.9498 6.90369 17.5021 6.45597 16.9498 6.45597L7.94979 6.45597C7.3975 6.45597 6.94979 6.90369 6.94979 7.45597C6.94979 8.00826 7.3975 8.45597 7.94979 8.45597L15.9498 8.45597L15.9498 16.456C15.9498 17.0083 16.3975 17.456 16.9498 17.456C17.5021 17.456 17.9498 17.0083 17.9498 16.456L17.9498 7.45597ZM7.7574 18.0626L17.6569 8.16308L16.2427 6.74887L6.34319 16.6484L7.7574 18.0626Z" fill="#856FFF"/>
</svg>
