<svg width="48" height="49" viewBox="0 0 48 49" fill="none" xmlns="http://www.w3.org/2000/svg">
<rect x="0.5" y="0.90625" width="47" height="47" rx="7.5" stroke="#EAEBEF"/>
<path fill-rule="evenodd" clip-rule="evenodd" d="M25.5004 15.4062H22.5004C22.0862 15.4062 21.7504 15.742 21.7504 16.1562V16.9062H26.2504V16.1562C26.2504 15.742 25.9146 15.4062 25.5004 15.4062ZM28.5004 16.9062V16.1562C28.5004 14.4994 27.1573 13.1562 25.5004 13.1562H22.5004C20.8436 13.1562 19.5004 14.4994 19.5004 16.1562V16.9062H18.0022H15.7503H15.3755C14.7542 16.9062 14.2505 17.4099 14.2505 18.0312C14.2505 18.6526 14.7542 19.1562 15.3755 19.1562H15.844L16.3206 30.5936C16.421 33.0039 18.4043 34.9062 20.8167 34.9062H27.1839C29.5963 34.9062 31.5796 33.0039 31.68 30.5936L32.1565 19.1562H32.6254C33.2467 19.1562 33.7504 18.6526 33.7504 18.0312C33.7504 17.4099 33.2467 16.9062 32.6254 16.9062H32.2503H29.9983H28.5004ZM29.9046 19.1562H28.5004H26.2504H21.7504H19.5004H18.096L18.5686 30.4999C18.6189 31.7051 19.6105 32.6562 20.8167 32.6562H27.1839C28.3901 32.6562 29.3817 31.7051 29.4319 30.4999L29.9046 19.1562ZM20.6251 22.1562V29.6562C20.6251 30.2776 21.1288 30.7812 21.7501 30.7812C22.3714 30.7812 22.8751 30.2776 22.8751 29.6562V22.1562C22.8751 21.5349 22.3714 21.0312 21.7501 21.0312C21.1288 21.0312 20.6251 21.5349 20.6251 22.1562ZM26.2501 21.0312C26.8714 21.0312 27.3751 21.5349 27.3751 22.1562V29.6562C27.3751 30.2776 26.8714 30.7812 26.2501 30.7812C25.6288 30.7812 25.1251 30.2776 25.1251 29.6562V22.1562C25.1251 21.5349 25.6288 21.0312 26.2501 21.0312Z" fill="#E9033A"/>
</svg>
