<svg width="20" height="21" viewBox="0 0 20 21" fill="none" xmlns="http://www.w3.org/2000/svg">
<path fill-rule="evenodd" clip-rule="evenodd" d="M8.75 4.15625C8.75 5.19178 7.91053 6.03125 6.875 6.03125C5.83947 6.03125 5 5.19178 5 4.15625C5 3.12072 5.83947 2.28125 6.875 2.28125C7.91053 2.28125 8.75 3.12072 8.75 4.15625ZM6.875 12.2813C7.91053 12.2813 8.75 11.4418 8.75 10.4063C8.75 9.37072 7.91053 8.53125 6.875 8.53125C5.83947 8.53125 5 9.37072 5 10.4063C5 11.4418 5.83947 12.2813 6.875 12.2813ZM13.125 12.2813C14.1605 12.2813 15 11.4418 15 10.4063C15 9.37072 14.1605 8.53125 13.125 8.53125C12.0895 8.53125 11.25 9.37072 11.25 10.4063C11.25 11.4418 12.0895 12.2813 13.125 12.2813ZM13.125 6.03125C14.1605 6.03125 15 5.19178 15 4.15625C15 3.12072 14.1605 2.28125 13.125 2.28125C12.0895 2.28125 11.25 3.12072 11.25 4.15625C11.25 5.19178 12.0895 6.03125 13.125 6.03125ZM8.75 16.6563C8.75 17.6918 7.91053 18.5313 6.875 18.5313C5.83947 18.5313 5 17.6918 5 16.6563C5 15.6207 5.83947 14.7813 6.875 14.7813C7.91053 14.7813 8.75 15.6207 8.75 16.6563ZM13.125 18.5313C14.1605 18.5313 15 17.6918 15 16.6563C15 15.6207 14.1605 14.7813 13.125 14.7813C12.0895 14.7813 11.25 15.6207 11.25 16.6563C11.25 17.6918 12.0895 18.5313 13.125 18.5313Z" fill="black" fill-opacity="0.5"/>
</svg>
