<svg width="44" height="44" viewBox="0 0 44 44" fill="none" xmlns="http://www.w3.org/2000/svg">
<rect width="44" height="44" rx="22" fill="#856FFF" fill-opacity="0.1"/>
<path d="M13 27L18 23L22 25L26 21" stroke="#856FFF" stroke-width="2" stroke-linecap="round" stroke-linejoin="round"/>
<circle cx="18" cy="18" r="2" fill="#856FFF"/>
<path fill-rule="evenodd" clip-rule="evenodd" d="M15 14H28C28.5523 14 29 14.4477 29 15V21C29 21.5523 29.4477 22 30 22C30.5523 22 31 21.5523 31 21V15C31 13.3431 29.6569 12 28 12H15C13.3431 12 12 13.3431 12 15V28C12 29.6569 13.3431 31 15 31H22C22.5523 31 23 30.5523 23 30C23 29.4477 22.5523 29 22 29H15C14.4477 29 14 28.5523 14 28V15C14 14.4477 14.4477 14 15 14Z" fill="#856FFF"/>
<path fill-rule="evenodd" clip-rule="evenodd" d="M29 25C29 24.4477 28.5523 24 28 24C27.4477 24 27 24.4477 27 25V27H25C24.4477 27 24 27.4477 24 28C24 28.5523 24.4477 29 25 29H27V31C27 31.5523 27.4477 32 28 32C28.5523 32 29 31.5523 29 31V29H31C31.5523 29 32 28.5523 32 28C32 27.4477 31.5523 27 31 27H29V25Z" fill="#856FFF"/>
</svg>
