<svg width="24" height="24" viewBox="0 0 24 24" fill="none" xmlns="http://www.w3.org/2000/svg">
<path fill-rule="evenodd" clip-rule="evenodd" d="M7.38655 8.80055L5.50042 7.03033C5.18835 6.73744 5.18835 6.26256 5.50042 5.96967C5.81249 5.67678 6.31846 5.67678 6.63053 5.96967L18.3508 16.9697C18.6628 17.2626 18.6628 17.7374 18.3508 18.0303C18.0387 18.3232 17.5327 18.3232 17.2207 18.0303L16.2015 17.0738C15.4769 17.2281 14.7452 17.3427 14.01 17.4176C13.8054 18.3218 12.9499 19.0001 11.9256 19.0001C10.9013 19.0001 10.0458 18.3218 9.84116 17.4176C9.08301 17.3404 8.32854 17.2209 7.58176 17.0592L6.70678 16.8697C5.70771 16.6533 5 15.8183 5 14.856C5 14.3079 5.23199 13.7823 5.64492 13.3947L5.8514 13.2009C6.33836 12.7439 6.67028 12.1618 6.80534 11.528L7.38655 8.80055ZM14.841 15.7969C12.5528 16.1551 10.2083 16.0886 7.94113 15.5976L7.06615 15.4081C6.79224 15.3488 6.59821 15.1198 6.59821 14.856C6.59821 14.7057 6.66182 14.5616 6.77503 14.4554L6.98151 14.2616C7.69158 13.5951 8.17558 12.7464 8.37252 11.8222L8.74477 10.0753L14.841 15.7969ZM15.4787 11.8222C15.5083 11.9614 15.5445 12.0989 15.587 12.2343L18.8092 15.2585C18.8368 15.1279 18.8512 14.9932 18.8512 14.856C18.8512 14.3079 18.6192 13.7823 18.2063 13.3947L17.9998 13.2009C17.5128 12.7439 17.1809 12.1618 17.0458 11.528L16.3861 8.43203C15.9609 6.43645 14.0939 5 11.9256 5C10.8084 5 9.77122 5.38132 8.97002 6.02397L10.1055 7.08965C10.6106 6.71802 11.2452 6.5 11.9256 6.5C13.3321 6.5 14.5431 7.43176 14.8189 8.72621L15.4787 11.8222Z" fill="#0F0F0F"/>
</svg>
