<svg width="24" height="24" viewBox="0 0 24 24" fill="none" xmlns="http://www.w3.org/2000/svg">
<path fill-rule="evenodd" clip-rule="evenodd" d="M14.5686 6.25461L14.5683 6.25L14.5686 6.24539C14.5712 6.21458 14.5817 6.08821 14.1831 5.89438C13.7194 5.66892 12.9348 5.5 11.9046 5.5C10.8744 5.5 10.0898 5.66892 9.62615 5.89438C9.22751 6.08821 9.23806 6.21458 9.24063 6.24539L9.24091 6.25L9.24063 6.25461C9.23806 6.28542 9.22751 6.41179 9.62615 6.60562C10.0898 6.83108 10.8744 7 11.9046 7C12.9348 7 13.7194 6.83108 14.1831 6.60562C14.5817 6.41179 14.5712 6.28542 14.5686 6.25461ZM11.9046 8.5C12.444 8.5 12.9601 8.46061 13.4351 8.38183L14.33 10.7338L14.5991 11.4407L15.3632 11.6624C16.0537 11.8627 16.4874 12.1021 16.7242 12.3114C16.9278 12.4914 16.9656 12.6223 16.9656 12.7499C16.9656 12.8902 16.9069 13.2381 15.9672 13.628C15.0417 14.012 13.6227 14.2499 11.9046 14.2499C10.1864 14.2499 8.76745 14.012 7.84201 13.628C6.9023 13.2381 6.84358 12.8902 6.84358 12.7499C6.84358 12.6223 6.88133 12.4914 7.08495 12.3114C7.32177 12.1021 7.75547 11.8627 8.44599 11.6624L9.21015 11.4407L9.47917 10.7338L10.3741 8.38183C10.8492 8.46061 11.3652 8.5 11.9046 8.5ZM16.1665 6.25C16.1665 6.98768 15.705 7.54398 14.956 7.91888L15.8352 10.2293C17.4895 10.7092 18.5638 11.5494 18.5638 12.7499C18.5638 14.6029 16.0047 15.5975 12.7037 15.7337V19C12.7037 19.4142 12.3459 19.75 11.9046 19.75C11.4633 19.75 11.1055 19.4142 11.1055 19V15.7337C7.80446 15.5975 5.24536 14.6029 5.24536 12.7499C5.24536 11.5494 6.31969 10.7092 7.97406 10.2293L8.85323 7.91887C8.10419 7.54398 7.6427 6.98768 7.6427 6.25C7.6427 4.75 9.55082 4 11.9046 4C14.2584 4 16.1665 4.75 16.1665 6.25Z" fill="#0F0F0F"/>
</svg>
