<svg width="24" height="24" viewBox="0 0 24 24" fill="none" xmlns="http://www.w3.org/2000/svg">
<path fill-rule="evenodd" clip-rule="evenodd" d="M12 2.625C12.6213 2.625 13.125 3.12868 13.125 3.75V10.875H20.25C20.8713 10.875 21.375 11.3787 21.375 12C21.375 12.6213 20.8713 13.125 20.25 13.125H13.125V20.25C13.125 20.8713 12.6213 21.375 12 21.375C11.3787 21.375 10.875 20.8713 10.875 20.25V13.125H3.75C3.12868 13.125 2.625 12.6213 2.625 12C2.625 11.3787 3.12868 10.875 3.75 10.875H10.875V3.75C10.875 3.12868 11.3787 2.625 12 2.625Z" fill="#0F0F0F"/>
</svg>
