<svg width="44" height="44" viewBox="0 0 44 44" fill="none" xmlns="http://www.w3.org/2000/svg">
<rect width="44" height="44" rx="22" fill="#E7E6FF" fill-opacity="0.1"/>
<path fill-rule="evenodd" clip-rule="evenodd" d="M22 12.625C22.6213 12.625 23.125 13.1287 23.125 13.75V20.875H30.25C30.8713 20.875 31.375 21.3787 31.375 22C31.375 22.6213 30.8713 23.125 30.25 23.125H23.125V30.25C23.125 30.8713 22.6213 31.375 22 31.375C21.3787 31.375 20.875 30.8713 20.875 30.25V23.125H13.75C13.1287 23.125 12.625 22.6213 12.625 22C12.625 21.3787 13.1287 20.875 13.75 20.875H20.875V13.75C20.875 13.1287 21.3787 12.625 22 12.625Z" fill="#856FFF"/>
</svg>
