<svg width="24" height="24" viewBox="0 0 24 24" fill="none" xmlns="http://www.w3.org/2000/svg">
<path fill-rule="evenodd" clip-rule="evenodd" d="M8.91114 12.3471L13.81 8.94085C14.2076 8.66438 14.727 8.807 14.97 9.25941C15.2129 9.71181 15.0876 10.3027 14.69 10.5792L10.4097 13.5553L13.9914 17.6305C14.2444 17.9183 14.5875 18.08 14.9452 18.08C15.5104 18.08 16.0156 17.6792 16.211 17.0758L19.24 7.72162C19.2879 7.57342 19.3125 7.41673 19.3125 7.25879C19.3125 6.5194 18.7857 5.92 18.1358 5.92H18.0192C17.9057 5.92 17.7927 5.93701 17.683 5.97059L5.27573 9.77126C4.92868 9.87757 4.6875 10.2356 4.6875 10.6446C4.6875 11.0757 4.95494 11.4468 5.32649 11.5314L8.91114 12.3471ZM4.99554 13.4141L8.625 14.24L12.7981 18.9881C13.3676 19.636 14.1399 20 14.9452 20C16.2174 20 17.3547 19.0977 17.7944 17.7396L20.8234 8.38537C20.9402 8.02464 21 7.64323 21 7.25879C21 5.45901 19.7177 4 18.1358 4H18.0192C17.7576 4 17.497 4.03921 17.2443 4.11661L4.83702 7.91727C3.75318 8.24928 3 9.36747 3 10.6446C3 11.9909 3.83522 13.1501 4.99554 13.4141Z" fill="#856FFF"/>
</svg>
