<svg width="24" height="24" viewBox="0 0 24 24" fill="none" xmlns="http://www.w3.org/2000/svg">
<path fill-rule="evenodd" clip-rule="evenodd" d="M17.25 10.5C17.25 14.2279 14.2279 17.25 10.5 17.25C6.77208 17.25 3.75 14.2279 3.75 10.5C3.75 6.77208 6.77208 3.75 10.5 3.75C14.2279 3.75 17.25 6.77208 17.25 10.5ZM16.0188 17.6098C14.4948 18.7945 12.5798 19.5 10.5 19.5C5.52944 19.5 1.5 15.4706 1.5 10.5C1.5 5.52944 5.52944 1.5 10.5 1.5C15.4706 1.5 19.5 5.52944 19.5 10.5C19.5 12.5798 18.7945 14.4948 17.6098 16.0188L21.7955 20.2045C22.2348 20.6438 22.2348 21.3561 21.7955 21.7955C21.3561 22.2348 20.6438 22.2348 20.2045 21.7955L16.0188 17.6098Z" fill="#856FFF"/>
</svg>
