<svg width="24" height="24" viewBox="0 0 24 24" fill="none" xmlns="http://www.w3.org/2000/svg">
<path fill-rule="evenodd" clip-rule="evenodd" d="M10.7983 3.00012H13.202C13.3666 3.00012 13.5001 3.13357 13.5001 3.29823C13.5001 6.01095 16.4367 7.70656 18.7861 6.35013C18.9287 6.26783 19.1109 6.31667 19.1932 6.45922L20.3952 8.54104C20.4775 8.68361 20.4286 8.86593 20.2861 8.94824C17.9367 10.3046 17.9367 13.6957 20.2861 15.0521C20.4286 15.1344 20.4775 15.3167 20.3952 15.4593L19.1932 17.5411C19.1109 17.6836 18.9287 17.7325 18.7861 17.6502C16.4368 16.2938 13.5001 17.9893 13.5001 20.7021C13.5001 20.8667 13.3667 21.0001 13.2021 21.0001H10.7982C10.6336 21.0001 10.5001 20.8666 10.5001 20.702C10.5001 17.9891 7.56332 16.2937 5.21401 17.6501C5.07137 17.7324 4.88901 17.6836 4.80668 17.541L3.60482 15.4593C3.5225 15.3167 3.57135 15.1344 3.71393 15.0521C6.06329 13.6957 6.06329 10.3046 3.71393 8.94824C3.57135 8.86592 3.5225 8.68361 3.60482 8.54103L4.80669 6.45933C4.88902 6.31673 5.07137 6.26786 5.21399 6.3502C7.56336 7.70661 10.5001 6.01112 10.5001 3.29827C10.5001 3.13361 10.6336 3.00012 10.7983 3.00012ZM8.25011 3.29827C8.25011 1.89097 9.39095 0.750122 10.7983 0.750122H13.202C14.6093 0.750122 15.7501 1.89096 15.7501 3.29823C15.7501 4.27896 16.8118 4.89194 17.6611 4.40158C18.8798 3.69796 20.4382 4.11552 21.1418 5.33422L22.3437 7.41604C23.0474 8.63477 22.6298 10.1932 21.4111 10.8968C20.5617 11.3872 20.5617 12.6131 21.4111 13.1035C22.6298 13.8071 23.0474 15.3655 22.3437 16.5843L21.1418 18.6661C20.4382 19.8848 18.8798 20.3024 17.6611 19.5987C16.8118 19.1084 15.7501 19.7213 15.7501 20.7021C15.7501 22.1093 14.6093 23.2501 13.2021 23.2501H10.7982C9.39093 23.2501 8.25011 22.1093 8.25011 20.702C8.25011 19.7212 7.18838 19.1083 6.33901 19.5987C5.12024 20.3023 3.56178 19.8847 2.85813 18.666L1.65626 16.5843C0.952622 15.3655 1.37019 13.8071 2.58893 13.1035C3.43829 12.6131 3.43829 11.3872 2.58893 10.8968C1.37019 10.1932 0.952622 8.63477 1.65626 7.41604L2.85813 5.33433C3.56179 4.11557 5.12022 3.69799 6.33899 4.40165C7.18837 4.89204 8.25011 4.27905 8.25011 3.29827ZM14.2501 12.0001C14.2501 13.2428 13.2427 14.2501 12.0001 14.2501C10.7574 14.2501 9.75007 13.2428 9.75007 12.0001C9.75007 10.7575 10.7574 9.75012 12.0001 9.75012C13.2427 9.75012 14.2501 10.7575 14.2501 12.0001ZM16.5001 12.0001C16.5001 14.4854 14.4853 16.5001 12.0001 16.5001C9.51479 16.5001 7.50007 14.4854 7.50007 12.0001C7.50007 9.51484 9.51479 7.50012 12.0001 7.50012C14.4853 7.50012 16.5001 9.51484 16.5001 12.0001Z" fill="#856FFF"/>
</svg>
