<svg width="20" height="20" viewBox="0 0 20 20" fill="none" xmlns="http://www.w3.org/2000/svg">
<path fill-rule="evenodd" clip-rule="evenodd" d="M11.2504 2.5H8.75043C8.40526 2.5 8.12543 2.77982 8.12543 3.125V3.75H11.8754V3.125C11.8754 2.77982 11.5956 2.5 11.2504 2.5ZM13.7504 3.75V3.125C13.7504 1.74429 12.6311 0.625 11.2504 0.625H8.75043C7.36972 0.625 6.25043 1.74429 6.25043 3.125V3.75H5.00195H3.12532H2.81299C2.29522 3.75 1.87549 4.16973 1.87549 4.6875C1.87549 5.20527 2.29522 5.625 2.81299 5.625H3.20345L3.60058 15.1561C3.68427 17.1647 5.33698 18.75 7.34733 18.75H12.6533C14.6637 18.75 16.3164 17.1647 16.4001 15.1561L16.7972 5.625H17.1879C17.7057 5.625 18.1254 5.20527 18.1254 4.6875C18.1254 4.16973 17.7057 3.75 17.1879 3.75H16.8753H14.9987H13.7504ZM14.9206 5.625H13.7504H11.8754H8.12543H6.25043H5.08008L5.47395 15.0781C5.5158 16.0824 6.34216 16.875 7.34733 16.875H12.6533C13.6585 16.875 14.4848 16.0824 14.5267 15.0781L14.9206 5.625ZM7.18768 8.125V14.375C7.18768 14.8928 7.60742 15.3125 8.12518 15.3125C8.64295 15.3125 9.06268 14.8928 9.06268 14.375V8.125C9.06268 7.60723 8.64295 7.1875 8.12518 7.1875C7.60742 7.1875 7.18768 7.60723 7.18768 8.125ZM11.8752 7.1875C12.393 7.1875 12.8127 7.60723 12.8127 8.125V14.375C12.8127 14.8928 12.393 15.3125 11.8752 15.3125C11.3574 15.3125 10.9377 14.8928 10.9377 14.375V8.125C10.9377 7.60723 11.3574 7.1875 11.8752 7.1875Z" fill="#E9033A"/>
</svg>
