<svg width="44" height="44" viewBox="0 0 44 44" fill="none" xmlns="http://www.w3.org/2000/svg">
<path fill-rule="evenodd" clip-rule="evenodd" d="M18.5035 14.2804C18.8801 14.6543 18.8801 15.2606 18.5035 15.6345L15.9321 18.1877C15.5555 18.5616 14.9449 18.5616 14.5683 18.1877L13.2826 16.9111C12.9061 16.5372 12.9061 15.9309 13.2826 15.557C13.6592 15.1831 14.2698 15.1831 14.6463 15.557L15.2502 16.1566L17.1398 14.2804C17.5164 13.9065 18.1269 13.9065 18.5035 14.2804ZM20.0716 16.234C20.0716 16.7628 20.5034 17.1915 21.0359 17.1915H30.0359C30.5685 17.1915 31.0002 16.7628 31.0002 16.234C31.0002 15.7053 30.5685 15.2766 30.0359 15.2766H21.0359C20.5034 15.2766 20.0716 15.7053 20.0716 16.234ZM21.0359 20.7021C20.5034 20.7021 20.0716 21.1308 20.0716 21.6596C20.0716 22.1884 20.5034 22.617 21.0359 22.617H30.0359C30.5685 22.617 31.0002 22.1884 31.0002 21.6596C31.0002 21.1308 30.5685 20.7021 30.0359 20.7021H21.0359ZM18.5035 20.7408C18.8801 20.3669 18.8801 19.7607 18.5035 19.3868C18.1269 19.0129 17.5164 19.0129 17.1398 19.3868L15.2502 21.263L14.6463 20.6634C14.2698 20.2895 13.6592 20.2895 13.2826 20.6634C12.9061 21.0373 12.9061 21.6435 13.2826 22.0174L14.5683 23.294C14.9449 23.6679 15.5555 23.6679 15.9321 23.294L18.5035 20.7408ZM18.5035 24.8123C18.8801 25.1862 18.8801 25.7925 18.5035 26.1664L15.9321 28.7196C15.5555 29.0935 14.9449 29.0935 14.5683 28.7196L13.2826 27.443C12.9061 27.0691 12.9061 26.4628 13.2826 26.0889C13.6592 25.715 14.2698 25.715 14.6463 26.0889L15.2502 26.6885L17.1398 24.8123C17.5164 24.4384 18.1269 24.4384 18.5035 24.8123ZM21.0359 26.1277C20.5034 26.1277 20.0716 26.5563 20.0716 27.0851C20.0716 27.6139 20.5034 28.0426 21.0359 28.0426H30.0359C30.5685 28.0426 31.0002 27.6139 31.0002 27.0851C31.0002 26.5563 30.5685 26.1277 30.0359 26.1277H21.0359Z" fill="#0F0F0F"/>
</svg>
